<svg width="558" height="372" viewBox="0 0 558 372" fill="none" xmlns="http://www.w3.org/2000/svg">
<rect width="558" height="372" fill="#FFD7D2"/>
<g clip-path="url(#clip0)">
<path d="M400.869 278.118H153.085V88.601C153.085 70.8007 166.851 56.3039 184.138 56.3039H431.817V245.822C432.029 263.622 418.049 278.118 400.869 278.118Z" fill="#F1998E"/>
<path d="M378.887 190.608H277.191V207.449H378.887V190.608Z" fill="#FED7D2"/>
<path d="M421.573 31.3621C407.807 17.6123 385.398 17.6123 371.631 31.3621C360.107 42.8735 358.292 60.355 365.976 73.8916L396.495 126.335L427.015 73.8916C434.912 60.3542 433.203 42.8735 421.573 31.3621Z" fill="#03703C"/>
<path d="M388.385 148.399C389.667 147.545 390.947 147.119 392.226 146.586L301.628 56.3039H277.084L379.74 158.844C381.342 154.473 384.224 150.636 388.385 148.399Z" fill="#FED7D2"/>
<path d="M431.818 139.444H382.304V156.285H431.818V139.444Z" fill="#FED7D2"/>
<path d="M387.425 147.864H370.565V278.118H387.425V147.864Z" fill="#FED7D2"/>
<path d="M396.595 67.3483C402.728 67.3483 407.7 62.384 407.7 56.2603C407.7 50.1366 402.728 45.1724 396.595 45.1724C390.461 45.1724 385.489 50.1366 385.489 56.2603C385.489 62.384 390.461 67.3483 396.595 67.3483Z" fill="white"/>
<path d="M428.044 389.355L335.269 455.446L294.796 386.921L264.001 367.455L263.319 366.941C257.42 362.478 252.392 356.973 248.473 350.699L204.742 280.602L217.897 256.602L267.499 166.119L271.983 157.94L289.484 168.423C290.384 168.959 291.291 169.481 292.212 169.973C294.331 171.11 296.508 172.139 298.736 173.052L310.193 177.739C317.296 180.644 322.811 186.461 325.321 193.706L331.729 212.172C332.868 215.461 334.13 218.706 335.509 221.908L363.031 285.898C364.663 289.708 366.463 293.454 368.408 297.119L380.842 327.447C384.026 335.212 388.406 342.432 393.824 348.846L428.044 389.355Z" fill="#99644C"/>
<path d="M296.029 217.214L267.499 245.699V173.668L273.354 162.982L287.619 171.531C288.701 172.176 289.615 172.697 290.5 173.168C290.58 173.211 290.667 173.255 290.747 173.298C287.097 182.738 285.646 197.437 296.029 217.214Z" fill="#99644C"/>
<path d="M309.995 361.517C310.701 362.5 309.96 363.875 308.75 363.808C299.255 363.285 289.257 360.324 280.85 356.27C272.121 352.061 263.878 345.853 258.893 337.413C258.225 336.278 256.484 336.751 256.484 338.067V339.209C256.484 349.127 259.082 358.863 264.001 367.455L263.319 366.941C257.42 362.478 252.392 356.973 248.473 350.699L204.742 280.602L217.897 256.602L257.645 288.615C257.645 288.615 300.808 348.729 309.995 361.517Z" fill="#744C3A"/>
<path d="M226.408 315.462C224.884 322.076 220.364 329.219 212.622 328.191C212.085 328.118 211.555 327.995 211.047 327.829C209.574 327.358 208.232 326.517 207.165 325.365L200.569 318.259L192.515 308.537H192.508L191.166 306.914L190.694 306.349L185.557 300.155C184.468 298.844 183.931 297.163 184.055 295.468L185.426 276.683L185.724 272.626L189.04 274.343L215.597 288.079C217.149 288.883 218.434 290.114 219.297 291.621C220.327 293.425 221.568 295.178 222.751 296.967C223.063 297.438 223.375 297.916 223.665 298.402C225.022 300.568 226.205 302.821 226.771 305.284C227.518 308.551 227.155 312.239 226.408 315.462Z" fill="#99644C"/>
<path d="M158.511 226.533C149.746 233.75 142.564 241.098 134.631 249.002C132.625 250.889 131.67 253.635 132.071 256.358C132.792 261.255 136.351 265.85 140.699 268.12C143.447 269.554 146.597 270.282 149.696 270.177C152.575 270.079 155.506 269.382 158.352 268.948C158.405 268.94 158.457 268.932 158.511 268.924L158.511 226.533Z" fill="#99644C"/>
<path d="M152.733 187.951C144.324 195.578 137.503 203.261 129.958 211.535C128.046 213.516 127.222 216.304 127.753 219.004C128.709 223.861 132.483 228.281 136.937 230.341C139.75 231.641 142.931 232.219 146.022 231.965C148.893 231.729 151.787 230.894 154.609 230.323C154.662 230.313 154.714 230.302 154.766 230.291L152.733 187.951Z" fill="#99644C"/>
<path d="M170.559 145.914C159.511 150.432 150.012 155.574 139.585 161.04C136.984 162.31 135.168 164.769 134.722 167.626C133.919 172.765 136.057 178.484 139.714 182.113C142.024 184.406 144.959 186.116 148.102 186.974C151.022 187.771 154.18 187.983 157.173 188.431C157.229 188.439 157.284 188.448 157.34 188.456L170.559 145.914Z" fill="#99644C"/>
<path d="M169.267 150.073L157.338 188.454C157.28 188.446 157.229 188.439 157.171 188.432C154.182 187.983 151.026 187.773 148.101 186.976C148.022 186.954 147.934 186.918 147.855 186.896V160.324C154.842 156.68 161.706 153.231 169.267 150.073Z" fill="#99644C"/>
<path d="M157.004 238.549L156.526 259.883L156.308 269.287C155.198 269.489 154.073 269.692 152.956 269.859C152.956 269.859 152.956 269.859 152.948 269.859C148.283 268.345 145.141 263.614 145.845 258.471C146.266 255.406 146.984 252.762 147.855 250.495C151.243 241.693 157.004 238.549 157.004 238.549Z" fill="#99644C"/>
<path d="M211.757 324.179C212.639 321.189 214.212 316.106 215.621 312.839C216.055 311.83 215.909 310.666 215.204 309.822C213.639 307.949 210.671 304.86 207.559 304.06C206.386 303.759 205.125 304.06 204.177 304.812C202.627 306.043 200.474 308.571 201.247 312.786C201.305 313.101 201.421 313.4 201.574 313.681C202.379 315.156 205.237 320.159 209.277 324.714C210.034 325.567 211.434 325.273 211.757 324.179Z" fill="#B18977"/>
<path d="M223.665 298.402H206.091C194.141 298.402 192.45 304.813 192.515 308.537H192.508L191.166 306.914L190.694 306.349L185.557 300.155C184.468 298.844 183.931 297.163 184.055 295.468L185.426 276.683L185.724 272.626L189.04 274.343L215.597 288.079C217.149 288.883 218.434 290.114 219.297 291.621C220.327 293.425 221.568 295.178 222.751 296.967C223.063 297.438 223.375 297.916 223.665 298.402Z" fill="#744C3A"/>
<path d="M158.512 263.448L158.511 226.533C157.22 227.598 155.97 228.665 154.739 229.736C154.74 229.751 154.766 230.292 154.766 230.292L154.608 230.323C154.26 230.497 153.73 230.76 153.382 230.933C151.491 232.609 149.653 234.297 147.852 236.001V264.278C147.852 265.808 146.451 266.93 144.946 266.647C143.184 266.316 141.472 265.728 139.896 264.904C136.421 263.093 133.454 259.8 132.035 256.057C132.016 256.062 132.046 256.055 132.027 256.059C132.65 261.071 136.26 265.808 140.702 268.123C142.9 269.272 145.363 269.956 147.852 270.133V270.133C147.87 270.135 147.889 270.135 147.906 270.136C148.178 270.154 148.45 270.17 148.721 270.177C149.046 270.186 149.372 270.188 149.696 270.177C152.575 270.079 155.506 269.382 158.352 268.948C158.405 268.94 158.457 268.932 158.511 268.924V268.921C158.511 268.921 158.511 268.921 158.511 268.921V263.448H158.512Z" fill="#744C3A"/>
<path d="M157.706 223.313C156.635 224.197 155.589 225.08 154.558 225.965C154.064 215.668 152.733 187.951 152.733 187.951C151.044 189.482 149.432 191.018 147.853 192.559V226.305C147.853 227.56 146.89 228.606 145.636 228.712L145.218 228.746C142.122 228.996 138.945 228.424 136.131 227.12C132.399 225.39 129.142 222.009 127.626 218.097C127.65 218.403 127.698 218.709 127.755 219.006C128.706 223.86 132.487 228.279 136.938 230.34C139.751 231.644 142.928 232.215 146.024 231.966C146.633 231.918 147.244 231.837 147.853 231.738C147.856 231.738 147.858 231.737 147.861 231.736C147.974 231.718 148.088 231.704 148.201 231.684C149.559 231.46 150.918 231.146 152.264 230.837C152.812 230.713 153.36 230.589 153.905 230.473C154.184 230.227 154.458 229.981 154.739 229.736C154.739 229.735 154.739 229.73 154.739 229.728C155.707 228.883 156.698 228.038 157.706 227.201V223.313Z" fill="#744C3A"/>
<path d="M154.608 230.323C154.661 230.313 154.713 230.302 154.766 230.292C154.766 230.292 154.74 229.751 154.739 229.736C154.458 229.981 154.183 230.227 153.905 230.473C154.139 230.422 154.375 230.371 154.608 230.323Z" fill="#744C3A"/>
<path d="M169.267 150.073C166.188 151.359 163.224 152.694 160.321 154.069C152.715 157.675 147.855 165.315 147.855 173.722V180.512C147.855 182.287 146.008 183.441 144.394 182.695C142.362 181.757 140.488 180.46 138.905 178.896C137.075 177.077 135.624 174.726 134.737 172.191C135.285 175.918 137.123 179.532 139.711 182.116C141.964 184.342 144.809 186.02 147.86 186.902C147.861 186.904 147.863 186.907 147.865 186.909C147.9 186.919 147.935 186.926 147.971 186.936C148.016 186.949 148.059 186.965 148.104 186.977C148.373 187.049 148.65 187.114 148.925 187.181C148.962 187.19 149 187.2 149.038 187.209C149.095 187.223 149.151 187.237 149.208 187.251C149.353 187.282 149.5 187.307 149.645 187.336C149.956 187.4 150.268 187.461 150.582 187.517C150.63 187.526 150.68 187.534 150.728 187.542C151.093 187.605 151.46 187.665 151.829 187.72C151.91 187.732 151.99 187.746 152.071 187.759C152.149 187.77 152.227 187.778 152.305 187.79C153.051 187.894 153.799 187.989 154.545 188.082C155.487 188.201 156.424 188.32 157.342 188.46C157.343 188.459 157.343 188.459 157.344 188.459L159.191 182.512H159.186L169.267 150.073Z" fill="#744C3A"/>
<path d="M273.354 162.982L267.499 173.668V245.699L281.709 231.511C283.977 229.247 285.251 226.176 285.251 222.973V174.621C285.251 171.781 283.751 169.151 281.306 167.7C277.219 165.276 273.354 162.982 273.354 162.982Z" fill="#744C3A"/>
<path d="M296.865 210.807C296.857 210.775 296.849 210.743 296.84 210.71L251.265 256.212H251.957C255.164 256.212 258.241 254.94 260.509 252.676L294.754 218.486C296.764 216.477 297.567 213.559 296.865 210.807Z" fill="#744C3A"/>
<path d="M269.242 294.74H163.458C156.843 294.74 151.48 289.386 151.48 282.781V51.413C151.48 44.8085 156.843 39.4541 163.458 39.4541H269.242C275.857 39.4541 281.22 44.8085 281.22 51.413V282.781C281.22 289.386 275.857 294.74 269.242 294.74Z" fill="#141414"/>
<path d="M265.051 294.74H167.65C161.275 294.74 156.107 289.581 156.107 283.216V50.9791C156.107 44.6145 161.275 39.4549 167.65 39.4549H265.052C271.427 39.4549 276.594 44.6145 276.594 50.9791V283.216C276.594 289.581 271.426 294.74 265.051 294.74Z" fill="#545454"/>
<path d="M163.458 278.118C159.405 278.118 156.106 274.825 156.106 270.778V62.9597C156.106 58.9125 159.405 55.6196 163.458 55.6196H269.242C273.295 55.6196 276.594 58.9125 276.594 62.9597V270.778C276.594 274.826 273.295 278.118 269.242 278.118H163.458Z" fill="white"/>
<path d="M163.458 275.718C160.73 275.718 158.511 273.502 158.511 270.778V62.9598C158.511 60.2359 160.731 58.0199 163.458 58.0199H269.242C271.97 58.0199 274.189 60.2359 274.189 62.9598V270.778C274.189 273.502 271.97 275.718 269.242 275.718H163.458Z" fill="white"/>
<path d="M216.35 51.0549C217.955 51.0549 219.255 49.7564 219.255 48.1547C219.255 46.553 217.955 45.2545 216.35 45.2545C214.746 45.2545 213.446 46.553 213.446 48.1547C213.446 49.7564 214.746 51.0549 216.35 51.0549Z" fill="#141414"/>
<path d="M205.7 51.0549C207.305 51.0549 208.605 49.7564 208.605 48.1547C208.605 46.553 207.305 45.2545 205.7 45.2545C204.096 45.2545 202.795 46.553 202.795 48.1547C202.795 49.7564 204.096 51.0549 205.7 51.0549Z" fill="#141414"/>
<path d="M227.001 51.0549C228.605 51.0549 229.905 49.7564 229.905 48.1547C229.905 46.553 228.605 45.2545 227.001 45.2545C225.396 45.2545 224.096 46.553 224.096 48.1547C224.096 49.7564 225.396 51.0549 227.001 51.0549Z" fill="#141414"/>
<path d="M268.767 58.0199H163.458C160.73 58.0199 158.511 60.2359 158.511 62.9598V178.937C158.511 115.697 206.926 63.7534 268.767 58.0199Z" fill="#EDF5F7"/>
<path d="M264.312 149.183L263.892 152.435H248.975L248.587 149.183H264.312Z" fill="#FFF6E9"/>
<path d="M263.892 152.445L263.505 155.698L262.536 164.232L261.922 169.643C261.89 170.029 261.599 170.287 261.244 170.287H251.685C251.331 170.287 251.04 170.029 250.975 169.675L248.973 152.445H263.892Z" fill="#FF6937"/>
<path d="M257.627 150.714L256.345 150.862L258.397 168.715L259.68 168.568L257.627 150.714Z" fill="#9A3F21"/>
<path d="M264.312 149.183L263.892 152.435H248.975L248.587 149.183H264.312Z" fill="white"/>
<path d="M253.172 162.644L251.848 161.323C251.557 161.034 251.557 160.518 251.848 160.229L253.204 158.876C253.495 158.587 254.011 158.587 254.302 158.876L255.658 160.229C255.949 160.518 255.949 161.034 255.658 161.323L254.302 162.676C253.98 162.966 253.495 162.966 253.172 162.644Z" fill="white"/>
<path d="M255.949 168.699H252.946C252.526 168.699 252.172 168.345 252.172 167.926V164.931C252.172 164.512 252.526 164.158 252.946 164.158H255.949C256.369 164.158 256.723 164.512 256.723 164.931V167.926C256.724 168.345 256.401 168.699 255.949 168.699Z" fill="white"/>
<path d="M264.861 149.183H248.006L248.361 148.603V147.926H249.62L250.169 145.93H262.665L263.247 147.926H264.506V148.603L264.861 149.183Z" fill="#FFC043"/>
<path d="M255.768 145.93H257.075L256.821 143.707C256.692 142.548 255.691 141.679 254.528 141.679H248.006V142.967H254.528C255.045 142.967 255.496 143.353 255.529 143.868L255.768 145.93Z" fill="#FF6937"/>
<path d="M256.521 152.435L256.147 149.183H257.447L257.822 152.435H256.521Z" fill="#FF6937"/>
<path d="M263.131 99.89C263.893 102.821 262.679 106.965 260.533 109.107L244.184 99.8055L242.8 98.4242C241.727 97.3536 241.727 95.6335 242.8 94.5629L243.563 93.8015C249.548 87.882 260.533 89.8838 263.131 99.89Z" fill="#99644C"/>
<path d="M244.579 95.1264C245.03 94.9011 245.425 94.563 245.679 94.1396C246.188 93.3789 246.555 92.4774 247.289 92.054C248.306 91.4906 249.717 91.9413 250.819 91.6588C251.948 91.3771 252.993 90.3621 254.151 90.3902C255.28 90.4184 256.269 91.5461 257.37 91.8842C258.442 92.2223 259.883 91.8842 260.871 92.533C261.803 93.1528 262.057 94.5912 262.848 95.4645C263.582 96.2815 264.994 96.7049 265.53 97.7763C266.01 98.735 265.558 100.144 265.841 101.299C265.868 101.412 244.861 100.454 244.861 100.454L242.799 98.3969C241.924 97.5227 242.235 96.0006 243.42 95.5498C243.985 95.38 244.466 95.1828 244.579 95.1264Z" fill="#66D19E"/>
<path d="M261.55 95.578C266.18 100.003 266.096 107.445 261.55 111.954L260.957 112.546C259.884 113.617 258.161 113.617 257.088 112.546L242.828 98.3961L245.511 95.7181C249.916 91.3489 257.059 91.2926 261.55 95.578Z" fill="white"/>
<path d="M263.413 97.4382C268.044 101.864 267.959 109.305 263.413 113.815L262.821 114.407C261.748 115.478 260.025 115.478 258.952 114.407L242.744 98.3398C243.817 99.4103 245.54 99.4103 246.613 98.3398L247.375 97.5783C251.779 93.2099 258.923 93.1528 263.413 97.4382Z" fill="#FFC043"/>
<path d="M258.387 100.257C258.791 100.257 259.12 99.9287 259.12 99.5238C259.12 99.1189 258.791 98.7905 258.387 98.7905C257.981 98.7905 257.652 99.1189 257.652 99.5238C257.653 99.9287 257.981 100.257 258.387 100.257Z" fill="#99644C"/>
<path d="M250.593 101.581C250.998 101.581 251.327 101.253 251.327 100.849C251.327 100.444 250.998 100.115 250.593 100.115C250.187 100.115 249.859 100.444 249.859 100.849C249.859 101.253 250.187 101.581 250.593 101.581Z" fill="#99644C"/>
<path d="M254.489 100.904C254.895 100.904 255.224 100.577 255.224 100.172C255.224 99.7669 254.895 99.4384 254.489 99.4384C254.084 99.4384 253.756 99.7669 253.756 100.172C253.756 100.577 254.083 100.904 254.489 100.904Z" fill="#99644C"/>
<path d="M257.71 104.147C258.114 104.147 258.443 103.818 258.443 103.414C258.443 103.009 258.114 102.681 257.71 102.681C257.304 102.681 256.975 103.009 256.975 103.414C256.975 103.818 257.304 104.147 257.71 104.147Z" fill="#99644C"/>
<path d="M260.928 107.36C261.333 107.36 261.662 107.031 261.662 106.627C261.662 106.222 261.333 105.894 260.928 105.894C260.522 105.894 260.193 106.222 260.193 106.627C260.193 107.031 260.522 107.36 260.928 107.36Z" fill="#99644C"/>
<path d="M261.606 103.47C262.011 103.47 262.34 103.142 262.34 102.737C262.34 102.332 262.011 102.004 261.606 102.004C261.2 102.004 260.871 102.332 260.871 102.737C260.871 103.142 261.2 103.47 261.606 103.47Z" fill="#99644C"/>
<path d="M253.84 104.794C254.245 104.794 254.574 104.466 254.574 104.061C254.574 103.657 254.245 103.329 253.84 103.329C253.434 103.329 253.106 103.657 253.106 104.061C253.106 104.467 253.434 104.794 253.84 104.794Z" fill="#99644C"/>
<path d="M260.279 111.222C260.684 111.222 261.013 110.893 261.013 110.489C261.013 110.084 260.684 109.755 260.279 109.755C259.873 109.755 259.544 110.084 259.544 110.489C259.544 110.893 259.873 111.222 260.279 111.222Z" fill="#99644C"/>
<path d="M257.059 108.009C257.464 108.009 257.793 107.68 257.793 107.275C257.793 106.871 257.464 106.543 257.059 106.543C256.654 106.543 256.325 106.871 256.325 107.275C256.325 107.68 256.654 108.009 257.059 108.009Z" fill="#99644C"/>
<path d="M243.293 221.114C242.638 221.769 241.548 221.723 240.949 220.995C240.43 220.358 240.525 219.41 241.113 218.829L245.095 214.852L247.305 217.115L243.293 221.114Z" fill="#744C3A"/>
<path d="M242.283 211.868L250.198 219.975C250.78 220.572 251.746 220.578 252.334 219.985L256.373 215.952L246.231 205.833L242.294 209.759C241.717 210.34 241.705 211.277 242.283 211.868Z" fill="#BC8B2C"/>
<path d="M263.368 208.969L261.848 210.486L251.706 200.367L253.226 198.848C256.029 196.056 260.566 196.056 263.368 198.848C266.17 201.647 266.17 206.177 263.368 208.969Z" fill="#FFE3AC"/>
<path d="M251.71 200.376L246.235 205.839L256.372 215.965L261.847 210.502L251.71 200.376Z" fill="#FFC043"/>
<path d="M257.565 202.641C258.102 202.104 258.068 201.213 257.469 200.722C256.944 200.293 256.17 200.378 255.689 200.852L253.944 202.595L255.78 204.428L257.565 202.641Z" fill="white"/>
<path d="M253.938 202.603L248.464 208.066L250.297 209.897L255.771 204.434L253.938 202.603Z" fill="#FFE3AC"/>
<path d="M248.509 211.678C247.972 212.213 247.074 212.18 246.588 211.581C246.158 211.056 246.243 210.283 246.717 209.804L248.463 208.061L250.3 209.895L248.509 211.678Z" fill="#FFC043"/>
<path d="M261.412 206.476C261.949 205.941 261.916 205.049 261.317 204.559C260.791 204.13 260.017 204.214 259.536 204.688L257.791 206.431L259.627 208.265L261.412 206.476Z" fill="white"/>
<path d="M257.78 206.441L252.305 211.905L254.139 213.736L259.613 208.273L257.78 206.441Z" fill="#FFE3AC"/>
<path d="M252.35 215.512C251.813 216.048 250.915 216.014 250.429 215.416C250 214.892 250.085 214.119 250.559 213.639L252.305 211.896L254.141 213.73L252.35 215.512Z" fill="#FFC043"/>
<path d="M233.285 90.1745H163.858V96.9375H233.285V90.1745Z" fill="#CBCBCB"/>
<path d="M233.285 144.274H163.858V151.037H233.285V144.274Z" fill="#CBCBCB"/>
<path d="M233.285 198.374H163.858V205.137H233.285V198.374Z" fill="#CBCBCB"/>
<path d="M233.285 102.009H163.858V108.772H233.285V102.009Z" fill="#CBCBCB"/>
<path d="M233.285 156.108H163.858V162.871H233.285V156.108Z" fill="#CBCBCB"/>
<path d="M233.285 210.209H163.858V216.972H233.285V210.209Z" fill="#CBCBCB"/>
<path d="M180.791 113.843H163.858V120.605H180.791V113.843Z" fill="#CBCBCB"/>
<path d="M197.146 90.1745H163.858V96.9375H190.428C192.577 94.5944 194.821 92.3422 197.146 90.1745Z" fill="#AFAFAF"/>
<path d="M163.858 108.771H180.866C182.511 106.455 184.235 104.2 186.034 102.008H163.858V108.771Z" fill="#AFAFAF"/>
<path d="M163.858 120.605H173.445C174.709 118.305 176.044 116.049 177.45 113.842H163.858V120.605Z" fill="#AFAFAF"/>
<path d="M180.791 167.943H163.858V174.705H180.791V167.943Z" fill="#CBCBCB"/>
<path d="M267.495 245.698L296.027 217.211L311.7 259.886L267.495 245.698Z" fill="#99644C"/>
<path d="M178.767 224.971C191.92 223.637 204.932 222.153 217.984 220.046C223.448 219.163 228.737 221.788 233.511 224.089C257.992 235.886 283.425 245.883 308.271 256.914C308.528 257.028 311.7 258.178 311.7 258.437V320.81V363.894L290.208 352.691C281.325 348.061 273.987 340.946 269.093 332.215L254.874 306.855C253.012 303.534 250.833 300.4 248.368 297.499L228.391 273.983C225.111 270.121 220.549 267.566 215.539 266.783C207.128 265.47 198.729 264.033 190.452 262.061C185.121 260.79 179.653 259.624 174.779 257.02C169.436 254.166 167.101 250.158 166.515 244.177L170.838 231.678C171.837 228.021 174.989 225.354 178.767 224.971Z" fill="#99644C"/>
<path d="M184.376 224.43L175.523 225.361C173.853 225.537 172.286 226.273 171.116 227.477C168.348 230.323 165.344 235.269 166.775 246.836C166.912 247.944 167.873 248.77 168.991 248.74C171.01 248.687 174.279 248.601 177.198 248.524C180.646 248.433 183.569 245.935 184.15 242.54C184.776 238.886 185.935 234.031 188.05 229.542C189.247 227.003 187.172 224.136 184.376 224.43Z" fill="#B18977"/>
<path d="M290.773 245.07C290.74 245.086 290.716 245.11 290.692 245.127C288.386 246.785 285.371 247.115 282.759 245.988L271.915 241.287L274.979 238.228L290.773 245.07Z" fill="#744C3A"/>
</g>
<defs>
<clipPath id="clip0">
<rect width="337" height="359" fill="white" transform="translate(111 13)"/>
</clipPath>
</defs>
</svg>
